<svg version="1" xmlns="http://www.w3.org/2000/svg" width="341.333" height="341.333" viewBox="0 0 256.000000 256.000000"><path d="M96.1 85.3C79 119.6 65 147.8 65 148.1c0 .3 6.2.5 13.9.5h13.9l8.3-16.7 8.3-16.8 18.6.1 18.7.1 8.3 16.6 8.2 16.6 13.9.1c7.6 0 13.9-.2 13.9-.5 0-1.2-62.4-125.1-63-125.1-.4 0-14.7 28-31.9 62.3zm38.5 4.9c3.2 6.8 6 12.6 6.2 12.9.3.7-24.1.6-24.8-.1-.5-.6 11.2-25 12-25 .4 0 3.3 5.5 6.6 12.2zM7.5 84.8c-.3.3 13.6 19.2 19.2 26.2.7.8 7 9.2 14 18.6 7.1 9.4 13.2 17.2 13.7 17.3 1.3.4 7.7-11.9 6.9-13.2-.3-.7-3-4.4-6-8.4-2.9-3.9-5.3-7.6-5.3-8.1 0-.8 7.8-17.1 8.6-18.1.2-.2 4.8-.4 10.1-.4 5.4 0 10.4-.4 11.1-1 .7-.6 2.2-3.1 3.4-5.6 1.1-2.5 2.4-5.3 2.9-6.2.7-1.4-2.8-1.6-38.7-1.5-21.8.1-39.7.3-39.9.4zM172.8 91.6l3.5 7.2 9.9-.2c5.5-.1 10.3.1 10.7.4 1.2.7 9.1 16.7 9.1 18.2 0 .7-2.7 4.8-6.1 9.2l-6 7.8 3.4 6.7c1.9 3.6 3.7 6.6 4 6.6.5 0 42.9-55.8 46.2-60.9l1.4-2.2H169.2l3.6 7.2zM71.4 160.3c-2.3 6.1-24.3 73.1-24.1 73.4.5.4 73-23.7 73.9-24.6.5-.4-1.6-3.1-4.6-6l-5.3-5.2-9.4 3c-5.2 1.7-9.7 3.1-10 3.1-.6 0-8.1-7.2-12.8-12.3-2.3-2.5-2.3-2.6-.7-7.9 1-2.9 2.1-6 2.5-6.8.5-.9 1.1-2.9 1.5-4.5.6-2.7 0-3.6-4.8-8.4-4.6-4.5-5.6-5.2-6.2-3.8zM178.1 164.4l-5.3 5.4 3.2 9.7 3.2 9.6-2.3 2.6c-5.6 6-12.2 12.3-12.9 12.3-.4 0-5-1.4-10-3.1l-9.2-3.1-5.6 5.5c-3.1 3.1-5.4 5.8-5.2 6 1.1.7 74.3 24.7 74.6 24.4.5-.4-23.6-72.9-24.5-73.9-.4-.5-3.1 1.6-6 4.6z"/></svg>