<svg clip-rule="evenodd" fill-rule="evenodd" stroke-linejoin="round" stroke-miterlimit="1.41421" viewBox="0 0 1361 541" xmlns="http://www.w3.org/2000/svg"><g transform="matrix(1 0 0 1.16787 138.168 -449.0823)"><path d="m-138.168 384.532h1360.4v463.204h-1360.4z" fill="none"/><path d="m337.954 602.285c0-.248-.104-.444-.312-.588s-.466-.276-.774-.396-.642-.24-1.002-.36-.694-.28-1.002-.48-.566-.452-.774-.756-.312-.7-.312-1.188c0-.416.074-.782.222-1.098s.356-.576.624-.78.592-.358.972-.462.798-.156 1.254-.156c.528 0 1.03.046 1.506.138s.866.222 1.17.39l-.564 1.488c-.096-.056-.218-.114-.366-.174s-.318-.112-.51-.156-.396-.08-.612-.108-.436-.042-.66-.042c-.4 0-.71.07-.93.21s-.33.334-.33.582.104.446.312.594.466.284.774.408.642.248 1.002.372.694.284 1.002.48.566.442.774.738.312.676.312 1.14-.08.864-.24 1.2-.386.614-.678.834-.642.382-1.05.486-.856.156-1.344.156c-.328 0-.638-.018-.93-.054s-.562-.08-.81-.132-.466-.108-.654-.168-.338-.118-.45-.174l.588-1.5c.088.048.21.1.366.156s.33.11.522.162.398.094.618.126.442.048.666.048c.528 0 .93-.076 1.206-.228s.414-.388.414-.708z" fill="#44668a" fill-rule="nonzero" transform="matrix(28.5337 0 0 24.4323 -8557.946138127 -14077.9)"/><path d="m326.194 596.273c.192-.032.402-.062.63-.09s.458-.05.69-.066.458-.028.678-.036.422-.012.606-.012c.424 0 .842.036 1.254.108s.78.196 1.104.372.586.418.786.726.3.694.3 1.158c0 .688-.17 1.254-.51 1.698s-.81.746-1.41.906l.636.372 2.1 3.18h-2.064l-2.088-3.252-.936-.144v3.396h-1.776zm2.724 1.356c-.184 0-.362.002-.534.006s-.31.018-.414.042v2.316h.756c.504 0 .902-.096 1.194-.288s.438-.524.438-.996c0-.352-.124-.62-.372-.804s-.604-.276-1.068-.276z" fill="#44668a" fill-rule="nonzero" transform="matrix(28.5337 0 0 24.4323 -8557.946138127 -14077.9)"/><g fill="#334c68"><path d="m192.987 192.987h-28.905l-17.028-34.056h-38.108l-17.028 34.056h-28.905l64.987-129.974z" transform="matrix(.37258773723 -.6399194555 .74734218454 .31903203826 265.31025077234 588.15271527967)"/><path d="m192.987 192.987h-28.905l-17.028-34.056h-38.108l-17.028 34.056h-28.905l64.987-129.974z" transform="matrix(-.59048355524 -.50560713607 .59048355524 -.50560713607 458.90723680265 817.2630685435)"/><path d="m192.987 192.987h-28.905l-17.028-34.056h-38.108l-17.028 34.056h-28.905l64.987-129.974z" transform="matrix(-.59048355524 .50560713607 -.59048355524 -.50560713607 779.50392698401 687.8283566733)"/><path d="m192.987 192.987h-28.905l-17.028-34.056h-38.108l-17.028 34.056h-28.905l64.987-129.974z" transform="matrix(-.37258773723 -.6399194555 -.74734218454 .31903203826 821.9368857044 588.15271527967)"/></g><path d="m245.554 158.789h-28.906l-17.028-34.057h-38.107l-17.029 34.057h-28.905l64.987-129.975zm-78.502-45.881h27.028l-13.514-27.028z" fill="#44668a" transform="matrix(1.47819433314 0 0 1.26572342939 276.71199084627 408.4167155885)"/><path d="m318.406 597.749h-2.664v6.84h-1.776v-6.84h-2.664v-1.56h7.104z" fill="#44668a" fill-rule="nonzero" transform="matrix(28.5337 0 0 24.4323 -8742.944382077 -14077.9)"/><path d="m308.974 602.285c0-.248-.104-.444-.312-.588s-.466-.276-.774-.396-.642-.24-1.002-.36-.694-.28-1.002-.48-.566-.452-.774-.756-.312-.7-.312-1.188c0-.416.074-.782.222-1.098s.356-.576.624-.78.592-.358.972-.462.798-.156 1.254-.156c.528 0 1.03.046 1.506.138s.866.222 1.17.39l-.564 1.488c-.096-.056-.218-.114-.366-.174s-.318-.112-.51-.156-.396-.08-.612-.108-.436-.042-.66-.042c-.4 0-.71.07-.93.21s-.33.334-.33.582.104.446.312.594.466.284.774.408.642.248 1.002.372.694.284 1.002.48.566.442.774.738.312.676.312 1.14-.08.864-.24 1.2-.386.614-.678.834-.642.382-1.05.486-.856.156-1.344.156c-.328 0-.638-.018-.93-.054s-.562-.08-.81-.132-.466-.108-.654-.168-.338-.118-.45-.174l.588-1.5c.088.048.21.1.366.156s.33.11.522.162.398.094.618.126.442.048.666.048c.528 0 .93-.076 1.206-.228s.414-.388.414-.708z" fill="#44668a" fill-rule="nonzero" transform="matrix(28.5337 0 0 24.4323 -8742.944382077 -14077.9)"/><g fill="#5a5a5a" fill-rule="nonzero" transform="matrix(6.2211 0 0 5.32689 -966.732 -3510.7)"><path d="m160.425 800.486h1.104v2.88h.12c.184-.32.448-.558.792-.714s.708-.234 1.092-.234c.872 0 1.534.266 1.986.798s.678 1.334.678 2.406c0 1.096-.296 1.932-.888 2.508s-1.424.864-2.496.864c-.528 0-1.006-.044-1.434-.132s-.746-.192-.954-.312zm2.952 2.868c-.256 0-.482.04-.678.12s-.37.19-.522.33-.282.3-.39.48-.194.366-.258.558v2.988c.392.152.868.228 1.428.228.632 0 1.134-.194 1.506-.582s.558-1.01.558-1.866c0-.32-.032-.618-.096-.894s-.164-.514-.3-.714-.306-.358-.51-.474-.45-.174-.738-.174z"/><path d="m169.785 806.57.372 1.212h.156l.3-1.224 1.308-3.972h1.128l-2.064 5.7c-.152.392-.306.772-.462 1.14s-.328.694-.516.978-.396.512-.624.684-.49.258-.786.258c-.32 0-.592-.036-.816-.108l.18-.936c.12.04.24.06.36.06.16 0 .306-.02.438-.06s.254-.112.366-.216.214-.25.306-.438.178-.43.258-.726l-2.82-6.336h1.308z"/><path d="m177.705 800.486h1.2v6.48c0 .624-.162 1.12-.486 1.488s-.802.552-1.434.552c-.08 0-.174-.004-.282-.012s-.218-.022-.33-.042-.22-.042-.324-.066-.192-.052-.264-.084l.228-.996c.224.096.492.144.804.144.36 0 .598-.116.714-.348s.174-.552.174-.96z"/><path d="m186.285 808.37c-.28.208-.628.374-1.044.498s-.868.186-1.356.186c-.528 0-.986-.078-1.374-.234s-.706-.378-.954-.666-.432-.636-.552-1.044-.18-.864-.18-1.368c0-1.08.266-1.906.798-2.478s1.29-.858 2.274-.858c.312 0 .624.034.936.102s.592.196.84.384.45.446.606.774.234.756.234 1.284c0 .128-.004.276-.012.444s-.024.332-.048.492h-4.5c.016.736.192 1.292.528 1.668s.908.564 1.716.564c.336 0 .656-.058.96-.174s.54-.254.708-.414zm-.828-3.276c.016-.64-.114-1.092-.39-1.356s-.662-.396-1.158-.396c-.56 0-1.004.132-1.332.396s-.52.716-.576 1.356z"/><path d="m188.265 802.982c.72-.344 1.612-.516 2.676-.516.48 0 .866.062 1.158.186s.518.282.678.474.266.406.318.642.078.47.078.702c0 .44-.016.882-.048 1.326s-.048.926-.048 1.446c0 .304.014.598.042.882s.074.546.138.786h-.804l-.3-.96h-.12c-.088.12-.196.242-.324.366s-.28.234-.456.33-.378.176-.606.24-.49.096-.786.096-.568-.042-.816-.126-.462-.202-.642-.354-.322-.338-.426-.558-.156-.466-.156-.738c0-.36.078-.672.234-.936s.358-.48.606-.648.53-.292.846-.372.63-.12.942-.12c.248 0 .458.004.63.012s.316.018.432.03.214.024.294.036.152.022.216.03c.016-.12.028-.224.036-.312s.012-.2.012-.336c0-.224-.024-.412-.072-.564s-.126-.274-.234-.366-.254-.158-.438-.198-.408-.06-.672-.06c-.152 0-.32.012-.504.036s-.368.058-.552.102-.366.098-.546.162-.342.132-.486.204zm3.756 3.048c-.064-.008-.132-.02-.204-.036s-.162-.028-.27-.036-.236-.016-.384-.024-.33-.012-.546-.012c-.496 0-.89.088-1.182.264s-.438.476-.438.9c0 .32.114.56.342.72s.522.24.882.24c.264 0 .498-.034.702-.102s.38-.152.528-.252.268-.212.36-.336.162-.246.21-.366z"/><path d="m199.797 808.886v-3.48c0-.672-.108-1.176-.324-1.512s-.6-.504-1.152-.504c-.488 0-.894.126-1.218.378s-.55.574-.678.966v4.152h-1.104v-6.3h.768l.216.84h.108c.232-.288.534-.53.906-.726s.818-.294 1.338-.294c.368 0 .692.042.972.126s.514.232.702.444.33.496.426.852.144.806.144 1.35v3.708z"/><path d="m202.725 804.902h3.192v1.032h-3.192z"/><path d="m207.753 800.486h5.076v1.032h-3.876v2.676h3.6v1.032h-3.6v3.66h-1.2z"/><path d="m217.809 803.63c-.136-.04-.268-.076-.396-.108s-.248-.048-.36-.048c-.424 0-.754.108-.99.324s-.382.488-.438.816v4.272h-1.104v-6.3h.768l.216.84h.108c.184-.312.398-.554.642-.726s.55-.258.918-.258c.112 0 .244.01.396.03s.304.054.456.102z"/><path d="m219.009 802.982c.72-.344 1.612-.516 2.676-.516.48 0 .866.062 1.158.186s.518.282.678.474.266.406.318.642.078.47.078.702c0 .44-.016.882-.048 1.326s-.048.926-.048 1.446c0 .304.014.598.042.882s.074.546.138.786h-.804l-.3-.96h-.12c-.088.12-.196.242-.324.366s-.28.234-.456.33-.378.176-.606.24-.49.096-.786.096-.568-.042-.816-.126-.462-.202-.642-.354-.322-.338-.426-.558-.156-.466-.156-.738c0-.36.078-.672.234-.936s.358-.48.606-.648.53-.292.846-.372.63-.12.942-.12c.248 0 .458.004.63.012s.316.018.432.03.214.024.294.036.152.022.216.03c.016-.12.028-.224.036-.312s.012-.2.012-.336c0-.224-.024-.412-.072-.564s-.126-.274-.234-.366-.254-.158-.438-.198-.408-.06-.672-.06c-.152 0-.32.012-.504.036s-.368.058-.552.102-.366.098-.546.162-.342.132-.486.204zm3.756 3.048c-.064-.008-.132-.02-.204-.036s-.162-.028-.27-.036-.236-.016-.384-.024-.33-.012-.546-.012c-.496 0-.89.088-1.182.264s-.438.476-.438.9c0 .32.114.56.342.72s.522.24.882.24c.264 0 .498-.034.702-.102s.38-.152.528-.252.268-.212.36-.336.162-.246.21-.366z"/><path d="m230.541 808.886v-3.48c0-.672-.108-1.176-.324-1.512s-.6-.504-1.152-.504c-.488 0-.894.126-1.218.378s-.55.574-.678.966v4.152h-1.104v-6.3h.768l.216.84h.108c.232-.288.534-.53.906-.726s.818-.294 1.338-.294c.368 0 .692.042.972.126s.514.232.702.444.33.496.426.852.144.806.144 1.35v3.708z"/><path d="m238.509 808.454c-.256.184-.552.324-.888.42s-.692.152-1.068.168l-.276.48c.392.064.682.168.87.312s.282.348.282.612c0 .336-.148.606-.444.81s-.708.306-1.236.306c-.104 0-.21-.004-.318-.012s-.218-.024-.33-.048l.108-.432c.28.016.5.012.66-.012s.28-.064.36-.12.13-.118.15-.186.03-.134.03-.198c0-.136-.102-.242-.306-.318s-.498-.134-.882-.174l.624-1.044c-.44-.048-.814-.16-1.122-.336s-.558-.406-.75-.69-.332-.616-.42-.996-.132-.798-.132-1.254c0-1.064.258-1.886.774-2.466s1.258-.87 2.226-.87c.424 0 .792.038 1.104.114s.592.17.84.282l-.288.9c-.216-.112-.45-.2-.702-.264s-.526-.096-.822-.096c-1.304 0-1.956.8-1.956 2.4 0 .304.036.596.108.876s.188.532.348.756.37.402.63.534.578.198.954.198c.336 0 .63-.046.882-.138s.462-.202.63-.33z"/><path d="m239.493 805.742c0-.52.068-.986.204-1.398s.336-.762.6-1.05.586-.508.966-.66.814-.228 1.302-.228c.512 0 .96.084 1.344.252s.704.402.96.702.446.652.57 1.056.186.846.186 1.326c0 .512-.07.972-.21 1.38s-.34.756-.6 1.044-.58.508-.96.66-.81.228-1.29.228c-.528 0-.984-.084-1.368-.252s-.702-.4-.954-.696-.44-.646-.564-1.05-.186-.842-.186-1.314zm1.176 0c0 .296.034.586.102.87s.178.538.33.762.348.404.588.54.536.204.888.204c1.248 0 1.872-.792 1.872-2.376 0-.312-.034-.612-.102-.9s-.176-.542-.324-.762-.342-.398-.582-.534-.528-.204-.864-.204c-.624 0-1.098.198-1.422.594s-.486.998-.486 1.806z"/><path d="m247.713 802.586h1.104v6.3h-1.104zm-.228-1.5c0-.184.072-.35.216-.498s.332-.222.564-.222.424.074.576.222.228.314.228.498-.076.346-.228.486-.344.21-.576.21-.42-.07-.564-.21-.216-.302-.216-.486z"/><path d="m254.385 807.122c0-.16-.038-.294-.114-.402s-.178-.2-.306-.276-.276-.142-.444-.198-.344-.112-.528-.168c-.232-.064-.466-.134-.702-.21s-.448-.18-.636-.312-.342-.302-.462-.51-.18-.472-.18-.792c0-.624.186-1.088.558-1.392s.894-.456 1.566-.456c.504 0 .928.048 1.272.144s.644.2.9.312l-.264.936c-.216-.104-.474-.206-.774-.306s-.63-.15-.99-.15c-.392 0-.684.064-.876.192s-.288.36-.288.696c0 .136.036.25.108.342s.168.172.288.24.26.128.42.18.328.102.504.15c.24.064.48.138.72.222s.46.196.66.336.362.318.486.534.186.488.186.816c0 .592-.2 1.074-.6 1.446s-1 .558-1.8.558c-.512 0-.958-.052-1.338-.156s-.698-.224-.954-.36l.312-.96c.224.12.512.24.864.36s.708.18 1.068.18c.392 0 .714-.07.966-.21s.378-.402.378-.786z"/><path d="m260.697 800.486c.16-.024.346-.042.558-.054s.432-.022.66-.03.452-.014.672-.018.422-.006.606-.006c.736 0 1.374.106 1.914.318s.988.506 1.344.882.622.824.798 1.344.264 1.088.264 1.704c0 .56-.082 1.102-.246 1.626s-.426.99-.786 1.398-.822.736-1.386.984-1.246.372-2.046.372c-.136 0-.318-.004-.546-.012s-.462-.016-.702-.024-.462-.018-.666-.03-.35-.026-.438-.042zm2.532.948c-.112 0-.232 0-.36 0s-.256.004-.384.012-.244.016-.348.024-.184.016-.24.024v6.408c.04.008.118.014.234.018s.238.008.366.012.248.008.36.012.192.006.24.006c.6 0 1.102-.094 1.506-.282s.728-.438.972-.75.416-.666.516-1.062.15-.806.15-1.23c0-.36-.048-.728-.144-1.104s-.26-.718-.492-1.026-.54-.562-.924-.762-.868-.3-1.452-.3z"/><path d="m274.389 808.37c-.28.208-.628.374-1.044.498s-.868.186-1.356.186c-.528 0-.986-.078-1.374-.234s-.706-.378-.954-.666-.432-.636-.552-1.044-.18-.864-.18-1.368c0-1.08.266-1.906.798-2.478s1.29-.858 2.274-.858c.312 0 .624.034.936.102s.592.196.84.384.45.446.606.774.234.756.234 1.284c0 .128-.004.276-.012.444s-.024.332-.048.492h-4.5c.016.736.192 1.292.528 1.668s.908.564 1.716.564c.336 0 .656-.058.96-.174s.54-.254.708-.414zm-.828-3.276c.016-.64-.114-1.092-.39-1.356s-.662-.396-1.158-.396c-.56 0-1.004.132-1.332.396s-.52.716-.576 1.356z"/><path d="m279.621 807.122c0-.16-.038-.294-.114-.402s-.178-.2-.306-.276-.276-.142-.444-.198-.344-.112-.528-.168c-.232-.064-.466-.134-.702-.21s-.448-.18-.636-.312-.342-.302-.462-.51-.18-.472-.18-.792c0-.624.186-1.088.558-1.392s.894-.456 1.566-.456c.504 0 .928.048 1.272.144s.644.2.9.312l-.264.936c-.216-.104-.474-.206-.774-.306s-.63-.15-.99-.15c-.392 0-.684.064-.876.192s-.288.36-.288.696c0 .136.036.25.108.342s.168.172.288.24.26.128.42.18.328.102.504.15c.24.064.48.138.72.222s.46.196.66.336.362.318.486.534.186.488.186.816c0 .592-.2 1.074-.6 1.446s-1 .558-1.8.558c-.512 0-.958-.052-1.338-.156s-.698-.224-.954-.36l.312-.96c.224.12.512.24.864.36s.708.18 1.068.18c.392 0 .714-.07.966-.21s.378-.402.378-.786z"/><path d="m285.717 803.63c-.136-.04-.268-.076-.396-.108s-.248-.048-.36-.048c-.424 0-.754.108-.99.324s-.382.488-.438.816v4.272h-1.104v-6.3h.768l.216.84h.108c.184-.312.398-.554.642-.726s.55-.258.918-.258c.112 0 .244.01.396.03s.304.054.456.102z"/><path d="m286.653 805.742c0-.52.068-.986.204-1.398s.336-.762.6-1.05.586-.508.966-.66.814-.228 1.302-.228c.512 0 .96.084 1.344.252s.704.402.96.702.446.652.57 1.056.186.846.186 1.326c0 .512-.07.972-.21 1.38s-.34.756-.6 1.044-.58.508-.96.66-.81.228-1.29.228c-.528 0-.984-.084-1.368-.252s-.702-.4-.954-.696-.44-.646-.564-1.05-.186-.842-.186-1.314zm1.176 0c0 .296.034.586.102.87s.178.538.33.762.348.404.588.54.536.204.888.204c1.248 0 1.872-.792 1.872-2.376 0-.312-.034-.612-.102-.9s-.176-.542-.324-.762-.342-.398-.582-.534-.528-.204-.864-.204c-.624 0-1.098.198-1.422.594s-.486.998-.486 1.806z"/><path d="m299.313 808.454c-.28.2-.608.35-.984.45s-.772.15-1.188.15c-.528 0-.978-.08-1.35-.24s-.674-.384-.906-.672-.4-.636-.504-1.044-.156-.86-.156-1.356c0-1.064.258-1.886.774-2.466s1.258-.87 2.226-.87c.424 0 .792.038 1.104.114s.592.17.84.282l-.288.9c-.216-.112-.45-.2-.702-.264s-.526-.096-.822-.096c-1.304 0-1.956.8-1.956 2.4 0 .304.036.598.108.882s.188.536.348.756.37.398.63.534.578.204.954.204c.336 0 .63-.046.882-.138s.462-.202.63-.33z"/><path d="m305.385 808.886v-3.48c0-.344-.022-.642-.066-.894s-.124-.462-.24-.63-.272-.292-.468-.372-.442-.12-.738-.12c-.208 0-.412.036-.612.108s-.384.172-.552.3-.312.282-.432.462-.208.382-.264.606v4.02h-1.104v-8.4h1.104v2.88h.132c.24-.288.528-.52.864-.696s.752-.264 1.248-.264c.384 0 .716.042.996.126s.512.232.696.444.32.496.408.852.132.802.132 1.338v3.72z"/><path d="m313.725 808.37c-.28.208-.628.374-1.044.498s-.868.186-1.356.186c-.528 0-.986-.078-1.374-.234s-.706-.378-.954-.666-.432-.636-.552-1.044-.18-.864-.18-1.368c0-1.08.266-1.906.798-2.478s1.29-.858 2.274-.858c.312 0 .624.034.936.102s.592.196.84.384.45.446.606.774.234.756.234 1.284c0 .128-.004.276-.012.444s-.024.332-.048.492h-4.5c.016.736.192 1.292.528 1.668s.908.564 1.716.564c.336 0 .656-.058.96-.174s.54-.254.708-.414zm-.828-3.276c.016-.64-.114-1.092-.39-1.356s-.662-.396-1.158-.396c-.56 0-1.004.132-1.332.396s-.52.716-.576 1.356z"/><path d="m319.065 803.63c-.136-.04-.268-.076-.396-.108s-.248-.048-.36-.048c-.424 0-.754.108-.99.324s-.382.488-.438.816v4.272h-1.104v-6.3h.768l.216.84h.108c.184-.312.398-.554.642-.726s.55-.258.918-.258c.112 0 .244.01.396.03s.304.054.456.102z"/><path d="m323.517 807.122c0-.16-.038-.294-.114-.402s-.178-.2-.306-.276-.276-.142-.444-.198-.344-.112-.528-.168c-.232-.064-.466-.134-.702-.21s-.448-.18-.636-.312-.342-.302-.462-.51-.18-.472-.18-.792c0-.624.186-1.088.558-1.392s.894-.456 1.566-.456c.504 0 .928.048 1.272.144s.644.2.9.312l-.264.936c-.216-.104-.474-.206-.774-.306s-.63-.15-.99-.15c-.392 0-.684.064-.876.192s-.288.36-.288.696c0 .136.036.25.108.342s.168.172.288.24.26.128.42.18.328.102.504.15c.24.064.48.138.72.222s.46.196.66.336.362.318.486.534.186.488.186.816c0 .592-.2 1.074-.6 1.446s-1 .558-1.8.558c-.512 0-.958-.052-1.338-.156s-.698-.224-.954-.36l.312-.96c.224.12.512.24.864.36s.708.18 1.068.18c.392 0 .714-.07.966-.21s.378-.402.378-.786z"/></g></g></svg>